<svg xmlns="http://www.w3.org/2000/svg" version="1.1" xmlns:xlink="http://www.w3.org/1999/xlink" xmlns:svgjs="http://svgjs.dev/svgjs" width="1000" height="1125" viewBox="0 0 1000 1125"><g transform="matrix(1,0,0,1,1.7053025658242404e-13,0)"><svg viewBox="0 0 320 360" data-background-color="#ffffff" preserveAspectRatio="xMidYMid meet" height="1125" width="1000" xmlns="http://www.w3.org/2000/svg" xmlns:xlink="http://www.w3.org/1999/xlink"><g id="tight-bounds" transform="matrix(1,0,0,1,0,0)"><svg viewBox="0 0 320 360" height="360" width="320"><g><svg></svg></g><g><svg viewBox="0 0 320 360" height="360" width="320"><g><path xmlns="http://www.w3.org/2000/svg" d="M20.961 227.22l3.726 4.658-1.863-6.056c-0.466-2.795-3.726 0.466-1.863 1.398M25.153 224.425c1.397 2.329 2.795 4.658 2.795 6.987 0 3.261 2.795 4.658 5.123 5.589-3.261-3.726-5.124-13.974-7.918-12.576M204.017 26.929c7.918 0 15.371-0.932 23.756 0.931 20.495 5.124 37.729 15.371 49.374 29.811l32.606 52.169c1.397 13.042 4.192 27.482 3.726 43.319 3.261 0 2.795-4.658 6.521-5.59-3.726 9.316-5.59 20.961-6.521 34.469-2.329-7.453 0-18.632 0.466-24.687-3.261 5.124-5.124 1.397-5.124-0.932 0.466-3.726-1.397-3.261-2.795-4.658-5.124-4.658-8.384-9.782-12.11-17.7 2.329-6.055 2.795-14.905-4.658-19.563-2.329-1.397-5.124-3.726-6.521-7.453-1.863-5.124-5.124-11.179-4.193-19.097 0.466-2.329-6.987 5.124-11.179 1.863-18.166-12.576-36.332-27.016-58.224-39.127-11.645 0-20.029-4.192-24.221-9.316-3.726-4.658-0.932-10.713 4.658-11.179 3.261 0 6.987-0.932 9.782 0.932 0.466-1.863 2.329-4.192 4.657-4.192M157.904 16.215l0.932 0.466c4.658 0.932 6.987 7.453 12.11 5.124 0 3.261 0.466 6.521-0.466 8.85-1.397 3.726-5.59 3.726-8.85 3.726-31.208-1.863-49.374 11.179-68.471 22.358-5.124 3.261-10.713 5.59-14.906 9.782-20.029 18.632-41.921 35.866-47.045 70.335l-4.192 38.195c-0.466 4.192-5.124 8.384-4.192 13.508l3.26 22.824c-3.261-3.261-5.124 0.932-4.192 2.795 0.466 1.397 2.329 6.055 5.124 1.863 3.726 6.987 7.453 20.495 12.576 26.55 15.837 18.632 36.332 35.4 53.101 52.169 4.192-0.932 7.453-0.932 8.384-3.727 1.397 2.795-1.397 5.59-3.726 6.056 7.453 4.658 15.837 8.85 27.016 9.781 14.44 0.932 27.948 3.261 40.524 6.522 6.521-1.863 13.042-2.795 20.029-3.261 2.329 0 3.726-3.726 6.521-4.658l0.466-4.658c2.795 4.192 2.329-1.397 0.466-4.192 3.261 2.795 4.192 5.124 5.589 6.987 0-1.397 3.726-6.521 3.727-0.466l0.931-6.055c1.397-0.932 1.863 5.124 3.261 0.931 1.397-4.192 4.192-0.932 6.987-2.329-0.932 1.863-0.466 5.59 2.794 3.261l3.727-3.261c2.329 5.59 6.055 3.261 7.918 2.329 20.495-13.042 40.99-28.413 60.553-43.784l-0.466 6.055 2.329-7.453c2.329 2.329 4.192 0.466 5.124-0.931 2.795-4.658 6.521-9.316 12.577-13.508-7.453 20.029-16.303 35.866-27.482 48.908l-4.658 5.59c0 3.261-0.932 7.453-4.658 7.918-1.863 0.466-5.59-0.932-8.384 1.863-1.397 1.863 3.261 5.59-0.466 2.795-3.261-2.329-6.521 0-10.248 0.932-2.795 0.932 1.863 3.726 2.795 5.589 0.932 1.863 1.863 3.726 1.398 6.056l-5.124-5.59c-6.055 3.261-9.782 9.316-14.906 13.974-2.329 1.863-1.397 5.124-1.397 7.918-3.261 0-6.987-0.932-8.85 0.932-1.397 1.863-0.932 4.658-0.932 7.453-4.658-0.466-5.124-7.453-9.315-6.056-4.192 0.932-8.85 1.397-12.577 3.727 2.795 5.59-4.658 2.329-3.726 3.26-6.987-4.192-13.042-7.453-20.495-4.658-15.837-5.124-35.4-2.795-49.84-0.931 0-2.329 0.466-4.658-0.466-5.124-0.932 2.329-3.726 1.397-3.26 1.397-8.85-6.055-17.7-9.782-27.016-14.905-8.384 0.932-16.303-3.261-18.632-5.59-6.521-6.055-13.974-2.795-20.029-4.192-13.042-3.261-17.7-16.769-19.098-26.084-0.932-4.658-4.658-6.521-6.055-6.056-6.055-19.563-15.371-37.263-22.824-55.429-1.863-4.658-1.397-9.316-1.397-14.44 2.329 0.932 4.658 0.466 4.192-2.794-2.329-15.371-7.918-27.016-13.974-38.195 3.261-15.837 3.726-34.469 11.179-48.443 6.521-12.576 18.632-19.098 27.016-29.811 2.795-3.726 2.795-8.85 5.59-12.11 9.316-9.316 18.632-19.098 28.879-27.482 4.658-3.726 10.247 0 17.234-1.397 2.329-8.384 11.645-15.837 20.495-13.508 3.726 0.932 11.179-8.85 13.508-9.782 3.726-1.397 1.863 3.726 1.863 6.987 8.85-6.987 20.961-10.713 32.14-14.906" fill="#096a2e" fill-rule="nonzero" stroke="none" stroke-width="1" stroke-linecap="butt" stroke-linejoin="miter" stroke-miterlimit="10" stroke-dasharray="" stroke-dashoffset="0" font-family="none" font-weight="none" font-size="none" text-anchor="none" style="mix-blend-mode: normal" data-fill-palette-color="tertiary"></path></g><g transform="matrix(1,0,0,1,64,149.73683017923184)"><svg viewBox="0 0 192 60.52633964153628" height="60.52633964153628" width="192"><g><svg viewBox="0 0 192 60.52633964153628" height="60.52633964153628" width="192"><g><svg viewBox="0 0 192 60.52633964153628" height="60.52633964153628" width="192"><g transform="matrix(1,0,0,1,0,36.5832386458037)"><svg viewBox="0 0 192 23.943100995732575" height="23.943100995732575" width="192"><g><svg viewBox="0 0 192 23.943100995732575" height="23.943100995732575" width="192"><g><svg viewBox="0 0 192 23.943100995732575" height="23.943100995732575" width="192"><g transform="matrix(1,0,0,1,0,0)"><svg width="192" viewBox="2 -38.599998474121094 316.3299865722656 39.44999694824219" height="23.943100995732575" data-palette-color="#096a2e"><path d="M29.7-37.9L29.7-33.55 18.3-33.55 18.3 0 13.4 0 13.4-33.55 2-33.55 2-37.9 29.7-37.9ZM66.75 0L61.05 0 50.3-16 39.55 0 33.85 0 47.35-19.5 34.75-37.9 40.4-37.9 50.35-23.15 60.25-37.9 65.9-37.9 53.3-19.5 66.75 0ZM110.04 0L105.94-11.05 90.14-11.05 86.09 0 81.09 0 95.34-38.35 100.74-38.35 115.04 0 110.04 0ZM91.79-15.4L104.29-15.4 98.04-32.3 91.79-15.4ZM145.64-37.9L150.49-37.9 150.49 0 145.19 0 126.54-29.75 126.54 0 121.69 0 121.69-37.9 126.94-37.9 145.64-8.15 145.64-37.9ZM171.34-23.15L190.24-23.15 190.24-2.65Q187.29-0.95 183.76-0.05 180.24 0.85 177.19 0.85L177.19 0.85Q171.19 0.85 167.01-1.63 162.84-4.1 160.74-8.55 158.64-13 158.64-18.9L158.64-18.9Q158.64-24.5 160.66-28.95 162.69-33.4 166.86-36 171.04-38.6 177.19-38.6L177.19-38.6Q180.49-38.6 182.76-37.98 185.04-37.35 187.89-36.1L187.89-36.1 187.89-31.5Q185.34-32.9 182.86-33.63 180.39-34.35 177.19-34.35L177.19-34.35Q172.94-34.35 169.89-32.4 166.84-30.45 165.24-26.98 163.64-23.5 163.64-19.05L163.64-19.05Q163.64-14.4 165.21-10.88 166.79-7.35 169.84-5.38 172.89-3.4 177.19-3.4L177.19-3.4Q179.34-3.4 181.29-3.9 183.24-4.4 185.44-5.3L185.44-5.3 185.44-18.8 171.34-18.8 171.34-23.15ZM204.63-4.35L220.49-4.35 220.49 0 199.78 0 199.78-37.9 204.63-37.9 204.63-4.35ZM232.68-4.2L251.03-4.2 251.03 0 227.83 0 227.83-37.9 250.78-37.9 250.78-33.7 232.68-33.7 232.68-21.15 248.28-21.15 248.28-16.95 232.68-16.95 232.68-4.2ZM281.33 0L271.58-16.05 264.23-16.05 264.23 0 259.38 0 259.38-37.9 272.63-37.9Q285.03-37.9 285.03-26.9L285.03-26.9Q285.03-22.55 282.96-19.88 280.88-17.2 276.73-16.4L276.73-16.4 286.88 0 281.33 0ZM264.23-33.65L264.23-20.3 272.63-20.3Q280.03-20.3 280.08-26.9L280.08-26.9Q280.08-30.4 278.23-32.02 276.38-33.65 272.63-33.65L272.63-33.65 264.23-33.65ZM305.43 0.85Q298.18 0.85 292.48-1.85L292.48-1.85 292.48-6.45Q298.23-3.4 305.43-3.4L305.43-3.4Q309.58-3.4 311.5-5.15 313.43-6.9 313.43-9.75L313.43-9.75Q313.43-12.45 311.65-13.8 309.88-15.15 306.43-16.15L306.43-16.15 303.03-17.1Q300.13-17.95 298.08-19.05 296.03-20.15 294.65-22.23 293.28-24.3 293.28-27.65L293.28-27.65Q293.28-33 296.4-35.8 299.53-38.6 305.28-38.6L305.28-38.6Q308.63-38.6 311.18-37.98 313.73-37.35 316.48-36.1L316.48-36.1 316.48-31.6Q311.38-34.35 305.28-34.35L305.28-34.35Q301.58-34.35 299.88-32.63 298.18-30.9 298.18-27.9L298.18-27.9Q298.23-25.15 299.85-23.85 301.48-22.55 304.93-21.55L304.93-21.55 308.38-20.6Q311.43-19.75 313.55-18.63 315.68-17.5 317-15.38 318.33-13.25 318.33-9.85L318.33-9.85Q318.28-4.9 314.85-2.02 311.43 0.85 305.43 0.85L305.43 0.85Z" opacity="1" transform="matrix(1,0,0,1,0,0)" fill="#096a2e" class="undefined-text-0" data-fill-palette-color="primary" id="text-0"></path></svg></g></svg></g></svg></g></svg></g><g transform="matrix(1,0,0,1,51.05377882117664,0)"><svg viewBox="0 0 89.89244235764671 33.08936557610242" height="33.08936557610242" width="89.89244235764671"><g><svg xmlns="http://www.w3.org/2000/svg" xmlns:xlink="http://www.w3.org/1999/xlink" version="1.2" baseProfile="tiny" x="0" y="0" viewBox="5.063632965087891 33.44695281982422 89.93832397460938 33.10625457763672" xml:space="preserve" height="33.08936557610242" width="89.89244235764671" class="icon-icon-0" data-fill-palette-color="accent" id="icon-0"><path d="M94.865 50.038C95.018 50.338 94.321 48.716 94.865 50.038L94.865 50.038z" fill="#8abe53" data-fill-palette-color="accent"></path><path d="M94.865 50.038c-0.544-1.322-2.919-3.862-12.716-6.027-10.124-2.236-18.393-2.979-21.94-2.736-0.584-0.511-1.265-1.156-1.987-1.842-2.164-2.054-4.856-4.61-7.407-5.93-0.203-0.105-0.45-0.059-0.603 0.111-1.861 2.084-6.839 7.619-7.51 8.195-0.117 0.1-0.181 0.248-0.175 0.4 0.007 0.154 0.084 0.295 0.209 0.385 0.047 0.034 0.727 0.505 1.769 0.911-1.023 0.156-2.037 0.311-3.017 0.461-5.247 0.801-9.779 1.494-10.438 1.542-0.129 0.01-0.257 0.032-0.386 0.051-0.68-0.048-1.643-0.294-2.575-0.532-0.911-0.232-1.771-0.452-2.408-0.504-1.111-0.085-1.693 0.254-1.941 0.469-0.233 0.201-0.371 0.45-0.387 0.7-0.02 0.301 0.071 0.751 0.615 1.083-1.76 0.039-3.88 0.022-4.755-0.328-0.299-0.12-0.898-0.502-1.59-0.945-2.281-1.459-6.1-3.901-10.013-4.214-0.567-0.043-1.086 0.136-1.412 0.498-0.52 0.576-0.301 1.312-0.256 2.003 0.053 0.803 0.043 1.609 0.118 2.411 0.147 1.561 1.133 2.964 0.995 4.565-0.118 1.37-0.683 2.758-1.097 4.058-0.162 0.507-1.567 3.69-0.493 3.763 5.114 0.365 7.983-0.899 11.015-2.235 0.407-0.179 0.817-0.36 1.235-0.537 2.27-0.963 5.241-0.979 7.543-0.499l-0.623 0.157c-0.218 0.054-0.373 0.247-0.379 0.47-0.005 0.188-0.093 3.938 0.891 6.678 0.002 0.008 0 0.015 0.003 0.023 0.002 0.006 0.008 0.008 0.01 0.013 0.189 0.519 0.412 1.004 0.688 1.417 0.122 0.183 0.327 0.298 0.608 0.341 1.43 0.212 5.628-1.279 10.56-5.263 0.595-0.06 2.942-0.263 4.854 0.014l2.116 0.313c1.362 0.203 2.663 0.396 3.618 0.519-0.38 1.167-1.136 3.66-1.035 4.75 0.072 0.769 0.335 1.303 0.785 1.586 0.23 0.146 0.498 0.22 0.8 0.22 0.271 0 0.569-0.059 0.893-0.177 0.6-0.218 2.031-1.713 3.339-3.185 0.321 0.357 0.682 0.571 1.056 0.594 0.024 0.001 0.049 0.002 0.075 0.003 0.302 0 0.715-0.118 1.096-0.627 0.497-0.663 1.173-1.783 1.475-2.293 4.183 0.327 8.087-0.185 11.878-0.687 0.874-0.116 1.737-0.23 2.589-0.332-0.086 0.45-0.174 1.019-0.185 1.472-0.001 0.009-0.001 0.017-0.002 0.025-0.003 0.167 0.003 0.318 0.027 0.438 0.105 0.526 0.579 1.469 1.158 1.797 0.301 0.169 0.55 0.138 0.706 0.083 1.076-0.382 3.705-3.783 4.378-4.858 0.434-0.102 1.479-0.344 2.49-0.551 0.651-0.133 1.217-0.385 1.763-0.628 0.608-0.271 1.183-0.526 1.79-0.569 1.246-0.089 6.023-0.971 8.285-1.841 1.691-0.651 3.551-1.634 3.891-2.365 0.27-0.577 0.066-1.086-0.282-1.392 0.161-0.142 0.286-0.305 0.36-0.501C95.046 50.66 95.018 50.338 94.865 50.038zM50.695 34.574c2.33 1.304 4.819 3.667 6.838 5.585 0.465 0.442 0.911 0.864 1.332 1.252-0.306 0.038-0.663 0.084-1.042 0.134-0.825-0.974-3.718-3.682-7.655-6.382C50.381 34.925 50.561 34.724 50.695 34.574zM49.494 35.914c3.413 2.328 6.034 4.688 7.126 5.795-0.369 0.051-0.756 0.106-1.164 0.163-0.701-0.714-3.338-3.303-6.542-5.314C49.119 36.331 49.31 36.118 49.494 35.914zM48.234 37.313c2.601 1.609 4.88 3.677 5.978 4.738-0.317 0.046-0.643 0.094-0.975 0.142-0.897-0.855-3.911-3.121-5.589-4.232C47.846 37.742 48.041 37.526 48.234 37.313zM46.969 38.709c1.463 0.95 3.809 2.717 4.978 3.675-0.364 0.054-0.732 0.109-1.107 0.164-0.884-0.7-3.251-2.273-4.534-3.111C46.525 39.198 46.746 38.955 46.969 38.709zM45.622 40.185c1.209 0.787 2.788 1.841 3.818 2.573-0.347 0.052-0.695 0.104-1.046 0.157-0.505-0.344-2.079-1.395-3.393-2.057C45.198 40.646 45.407 40.419 45.622 40.185zM43.835 42.095c0.131-0.135 0.286-0.298 0.451-0.473 0.776 0.366 1.724 0.939 2.468 1.412C45.502 42.888 44.431 42.422 43.835 42.095zM25.601 45.521c0.552 0.044 1.373 0.254 2.24 0.475 0.204 0.052 0.409 0.104 0.613 0.155-0.633 0.207-1.28 0.408-1.928 0.504-0.248-0.164-0.707-0.424-1.26-0.5-0.641-0.087-0.924-0.266-0.926-0.348C24.377 45.732 24.716 45.448 25.601 45.521zM6.856 42.901c-0.036-0.194-0.008-0.344 0.084-0.445 0.115-0.128 0.336-0.194 0.59-0.171 3.228 0.258 6.471 2.118 8.704 3.52-0.325 0.066-0.619 0.202-0.87 0.445-0.004 0.004-0.008 0.009-0.011 0.012l-0.008-0.003c-2.074-0.966-4.433-2.055-8.437-2.955C6.893 43.153 6.877 43.014 6.856 42.901zM7.01 45.353c-0.01-0.219-0.019-0.441-0.027-0.657-0.004-0.12-0.009-0.235-0.014-0.351 3.622 0.837 5.767 1.803 7.793 2.746-0.042 0.077-0.086 0.148-0.127 0.232-0.391-0.117-0.798-0.241-1.229-0.373C11.177 46.266 8.686 45.507 7.01 45.353zM14.006 50.035c-1.926 0.004-4.909-0.18-5.994-0.252-0.038-0.28-0.092-0.553-0.158-0.816 2.928 0.225 4.07 0.434 5.985 0.792l0.168 0.031C14.002 49.869 14.008 49.954 14.006 50.035zM14.04 51.034c0.01 0.144 0.02 0.287 0.032 0.431-0.697 0.019-1.521 0.05-2.38 0.082-1.356 0.051-2.728 0.1-3.782 0.114 0.072-0.331 0.121-0.624 0.142-0.873 1.153 0.077 3.941 0.248 5.862 0.248C13.958 51.036 13.997 51.034 14.04 51.034zM11.729 52.546c0.894-0.033 1.748-0.065 2.46-0.084 0.015 0.106 0.027 0.214 0.044 0.318-2.122 0.406-4.402 0.755-6.919 1.061 0.125-0.407 0.244-0.804 0.347-1.177C8.756 52.656 10.256 52.601 11.729 52.546zM14.146 48.798l-0.124-0.023c-1.966-0.367-3.199-0.593-6.482-0.834-0.046-0.131-0.092-0.267-0.134-0.385-0.105-0.291-0.199-0.551-0.256-0.77-0.028-0.107-0.05-0.255-0.069-0.424 1.581 0.181 4.022 0.927 6.032 1.544 0.408 0.125 0.794 0.243 1.167 0.354C14.228 48.432 14.185 48.612 14.146 48.798zM6.768 55.572c0.073-0.228 0.146-0.456 0.218-0.683 2.738-0.323 5.191-0.696 7.475-1.134 0.036 0.123 0.063 0.254 0.104 0.371-2.509 0.829-5.314 1.61-7.87 1.672C6.72 55.722 6.743 55.649 6.768 55.572zM6.132 57.624c0.067-0.238 0.151-0.516 0.243-0.811 2.823-0.001 5.908-0.874 8.626-1.778 0.161 0.245 0.394 0.435 0.669 0.579C13.021 56.776 10.419 57.823 6.132 57.624zM25.253 56.348l1.85-0.463c0.164 0.087 0.342 0.185 0.549 0.302 0.052 0.029 0.118 0.065 0.173 0.096-0.922 0.452-1.65 0.788-2.549 1.067C25.259 56.937 25.254 56.589 25.253 56.348zM25.339 58.374c1.162-0.338 2.018-0.746 3.133-1.294l0.437-0.214c0.392 0.201 0.835 0.41 1.325 0.622-1.575 0.815-3.406 1.573-4.77 2.072C25.409 59.149 25.37 58.751 25.339 58.374zM25.627 60.565c1.627-0.587 4.004-1.574 5.826-2.599 0.367 0.132 0.754 0.258 1.166 0.38-1.94 1.395-4.177 2.564-6.687 3.477C25.81 61.418 25.709 60.994 25.627 60.565zM26.622 63.43c-0.128-0.203-0.241-0.43-0.347-0.668 2.883-1.049 5.438-2.417 7.598-4.085 0.537 0.125 1.111 0.232 1.714 0.325C30.753 62.701 27.278 63.524 26.622 63.43zM48.706 65.437c-0.26 0.094-0.614 0.18-0.817 0.052-0.169-0.107-0.284-0.403-0.324-0.835-0.002-0.019 0.003-0.05 0.002-0.071 1.219-0.856 4.043-3.976 4.777-4.796 0.346-0.013 0.655-0.02 0.893-0.014 0.381 0.008 0.579 0.056 0.674 0.09-0.003 0.005-0.008 0.012-0.011 0.018C51.819 62.399 49.247 65.233 48.706 65.437zM47.769 63.112c0.239-1.065 0.622-2.312 0.874-3.068 0.463-0.041 1.362-0.116 2.28-0.178C49.778 61.119 48.589 62.35 47.769 63.112zM53.813 62.561c-0.065 0.088-0.186 0.227-0.307 0.226-0.106-0.007-0.277-0.122-0.458-0.351 0.586-0.676 1.109-1.299 1.464-1.726 0.16 0.021 0.317 0.03 0.476 0.048C54.654 61.31 54.174 62.079 53.813 62.561zM75.914 58.068c-0.01 0.013-0.012 0.029-0.021 0.044-0.008 0.012-0.021 0.02-0.027 0.033-0.378 0.755-3.049 4.088-3.862 4.54-0.192-0.146-0.546-0.688-0.628-1.098-0.001-0.005-0.001-0.015-0.002-0.02 0.525-0.495 2.25-2.17 4.29-4.702 0.173-0.215 0.139-0.53-0.076-0.703-0.213-0.173-0.529-0.14-0.703 0.076-1.331 1.652-2.531 2.935-3.338 3.754 0.042-0.217 0.086-0.426 0.128-0.606 0.003-0.014-0.003-0.029-0.001-0.043 0.003-0.02 0.013-0.038 0.013-0.059 0.004-0.199-0.008-0.426-0.021-0.669-0.059-1.058-0.05-1.831 0.604-2.148 1.414-0.685 4.098-1.72 4.566-1.72 0.003 0 0.005 0 0.007 0 0.401 0.026 0.909 0.417 0.951 0.527C77.707 55.57 76.75 56.956 75.914 58.068zM91.829 52.225c0.1 0.244 0.369 0.367 0.619 0.288 0.611-0.2 1.292-0.357 1.414-0.339 0.165 0.09 0.116 0.193 0.09 0.252-0.135 0.245-1.288 1.066-3.347 1.858-2.142 0.825-6.827 1.694-7.996 1.777-0.783 0.056-1.466 0.359-2.126 0.653-0.521 0.231-1.012 0.45-1.557 0.562-0.488 0.1-0.983 0.208-1.416 0.304 0.607-0.854 1.207-1.766 1.266-2.124 0.032-0.195 0.014-0.5-0.259-0.846-0.359-0.454-1.051-0.824-1.608-0.861-0.9-0.055-4.278 1.432-5.075 1.818-1.304 0.631-1.222 2.119-1.166 3.103 0.003 0.059 0.003 0.106 0.005 0.163-0.935 0.109-1.877 0.228-2.839 0.356-4.109 0.544-8.356 1.095-12.898 0.555-0.009-0.143-0.046-0.262-0.085-0.339-0.282-0.541-1.043-0.62-1.592-0.632-1.331-0.039-4.538 0.258-4.98 0.299-0.946-0.107-2.499-0.338-4.145-0.584l-2.12-0.313c-0.796-0.115-1.646-0.154-2.428-0.154-1.361 0-2.499 0.116-2.765 0.145-4.458-0.48-7.202-2.021-8.678-2.851-0.291-0.164-0.54-0.304-0.751-0.409-0.009-0.004-0.018-0.003-0.027-0.007-0.005-0.002-0.008-0.009-0.013-0.011-2.494-0.983-6.803-1.317-9.94-0.025-0.888 0.151-1.407-0.109-1.581-0.382-0.518-0.809-0.701-2.099-0.794-3.436 1.823 0.051 7.877 0.219 10.914 0.286 0.124 0.002 0.255 0.004 0.393 0.004 2.464 0 7.038-0.432 11.468-0.851 2.586-0.245 5.26-0.497 7.483-0.662 2.712-0.201 5.931-0.387 9.045-0.568 3.944-0.229 7.671-0.445 9.366-0.64 2.703-0.311 10.093-0.164 13.595-0.03-0.569 0.942-0.75 1.798-0.573 2.65 0.406 1.958 2.305 3.797 3.897 4.678 0.077 0.042 0.16 0.063 0.242 0.062 0.176 0 0.347-0.093 0.438-0.258 0.134-0.242 0.046-0.546-0.196-0.679-1.407-0.778-3.078-2.447-3.402-4.007-0.138-0.661-0.07-1.652 1.68-3.47 0.191-0.199 0.186-0.516-0.014-0.707-0.197-0.19-0.514-0.185-0.707 0.013-0.247 0.257-0.463 0.504-0.663 0.746-2.801-0.124-11.303-0.348-14.41 0.009-1.669 0.191-5.381 0.407-9.312 0.635-3.116 0.181-6.34 0.368-9.059 0.569-2.233 0.165-4.913 0.418-7.503 0.663-4.651 0.439-9.472 0.895-11.746 0.843-3.068-0.069-9.221-0.239-10.968-0.288 0.04-1.574 0.7-2.734 1.053-3.073 0.293-0.282 0.832-0.428 2.773 0.402 0.001 0 0.002 0 0.003 0 0.002 0.001 0.006 0.003 0.008 0.004 1.356 0.542 4.707 0.422 6.709 0.352l0.428-0.016c0.135-0.004 0.266-0.025 0.398-0.038 0.009 0 0.018 0.005 0.027 0.004 0.019 0 0.037-0.01 0.056-0.012 0.853-0.098 1.664-0.353 2.451-0.612 0.778-0.255 1.513-0.497 2.214-0.549 0.697-0.052 5.03-0.713 10.515-1.55 7.275-1.112 16.327-2.494 18.429-2.67 0.001 0 0.002 0 0.004-0.001 0 0 0.001 0 0.001 0 3.363-0.28 11.64 0.446 21.861 2.704 9.974 2.203 11.711 4.713 12.021 5.464 0.036 0.071 0.051 0.13 0.041 0.157-0.072 0.192-0.685 0.446-1.131 0.631-0.262 0.108-0.532 0.221-0.792 0.347C91.838 51.703 91.731 51.981 91.829 52.225z" fill="#8abe53" data-fill-palette-color="accent"></path><path d="M87.771 47.234c-1.322 0-2.398 1.005-2.399 2.24 0 1.235 1.076 2.24 2.399 2.24s2.397-1.005 2.397-2.24C90.168 48.239 89.093 47.234 87.771 47.234zM87.771 50.714c-0.771 0-1.398-0.556-1.399-1.24 0-0.684 0.627-1.24 1.399-1.24 0.771 0 1.397 0.556 1.397 1.24C89.168 50.158 88.541 50.714 87.771 50.714z" fill="#8abe53" data-fill-palette-color="accent"></path><circle cx="87.9209" cy="49.47437" r="0.90" fill="#8abe53" data-fill-palette-color="accent"></circle><path d="M84.775 53.473c0.086 0.059 0.184 0.086 0.282 0.086 0.159 0 0.316-0.077 0.413-0.219 0.155-0.229 0.097-0.54-0.132-0.694-1.904-1.295-1.737-2.56-1.323-3.627 0.101-0.257-0.027-0.547-0.286-0.647-0.253-0.102-0.546 0.027-0.646 0.285C82.804 49.374 81.956 51.556 84.775 53.473z" fill="#8abe53" data-fill-palette-color="accent"></path><path d="M85.249 54.079c-1.149 0.257-1.991 0.12-2.508-0.412-0.856-0.881-0.771-2.799-0.516-3.801 0.068-0.268-0.094-0.54-0.362-0.608-0.271-0.073-0.539 0.094-0.607 0.361-0.276 1.084-0.471 3.471 0.768 4.746 0.544 0.56 1.277 0.841 2.19 0.841 0.387 0 0.805-0.05 1.254-0.152 0.27-0.061 0.439-0.328 0.379-0.597C85.786 54.188 85.515 54.018 85.249 54.079z" fill="#8abe53" data-fill-palette-color="accent"></path></svg></g></svg></g><g></g></svg></g></svg></g></svg></g></svg></g><defs></defs></svg><rect width="320" height="360" fill="none" stroke="none" visibility="hidden"></rect></g></svg></g></svg>